Coordinates
version=1
nRows=5
nColumns=40
inDegrees=yes

Units are S.I. units (second, meters, Newtons, ...)
Angles are in degrees.

endheader
time	pelvis_tilt	pelvis_list	pelvis_rotation	pelvis_tx	pelvis_ty	pelvis_tz	hip_flexion_r	hip_adduction_r	hip_rotation_r	knee_angle_r	knee_angle_r_beta	ankle_angle_r	subtalar_angle_r	mtp_angle_r	hip_flexion_l	hip_adduction_l	hip_rotation_l	knee_angle_l	knee_angle_l_beta	ankle_angle_l	subtalar_angle_l	mtp_angle_l	lumbar_extension	lumbar_bending	lumbar_rotation	arm_flex_r	arm_add_r	arm_rot_r	elbow_flex_r	pro_sup_r	wrist_flex_r	wrist_dev_r	arm_flex_l	arm_add_l	arm_rot_l	elbow_flex_l	pro_sup_l	wrist_flex_l	wrist_dev_l
      0.95000000	     -3.75177155	      1.36543376	      7.45906382	      0.42054155	      0.93439122	      1.50437541	     31.47818488	    -10.17457915	    -15.67911452	    -21.45492880	     -0.37445915	      2.12293829	     -2.88812768	     10.24588562	    -10.21533458	     -2.42231223	     11.38124848	     -7.71216103	     -0.13460260	      7.99123892	     -4.93617831	    -15.20872134	     -1.45436915	     -2.15111738	     -8.93236054	    -11.53177709	    -11.66938091	    -12.92625639	     17.46156896	     89.95437384	      0.00000000	      0.00000000	      6.69486081	     14.14198082	      3.17575172	     39.54905049	     89.95437384	      0.00000000	      0.00000000
      0.96000000	     -3.86532093	      1.25654564	      7.81936276	      0.43492280	      0.93162261	      1.50370466	     31.57996434	    -10.09765711	    -16.34387517	    -18.14033755	     -0.31660862	      2.28582299	     -0.68897063	      9.79172040	    -10.85502086	     -2.03213583	     11.61852493	     -8.12887211	     -0.14187558	      8.08382208	     -5.73808169	    -15.75736834	     -1.42099084	     -2.05904806	     -9.39349070	    -12.02183443	    -11.66880032	    -13.78139572	     16.90783408	     89.95437384	      0.00000000	      0.00000000	      7.33012818	     14.72458912	      3.15517355	     41.31390070	     89.95437384	      0.00000000	      0.00000000
      0.97000000	     -3.90363827	      1.04987604	      8.17257791	      0.44977533	      0.92897560	      1.50323614	     31.55185274	     -9.91764836	    -17.17187133	    -15.02836551	     -0.26229446	      2.44669836	      1.79157632	      8.95314095	    -11.57264206	     -1.47755100	     11.86886504	     -8.55510350	     -0.14931472	      8.00050470	     -6.80676374	    -16.44794717	     -1.40415479	     -1.86663297	     -9.78546009	    -12.50750310	    -11.61109449	    -15.15068092	     16.34705754	     89.95437384	      0.00000000	      0.00000000	      7.85669692	     15.30494035	      3.12744526	     43.11056383	     89.95437384	      0.00000000	      0.00000000
      0.98000000	     -4.38859526	      1.10299504	      8.43320703	      0.46434399	      0.92570282	      1.50290029	     32.11755848	     -9.93410726	    -17.46760550	    -12.55751482	     -0.21916998	      2.51546022	      3.43318964	      8.80014733	    -11.81661336	     -1.33299417	     11.71335614	     -8.98371412	     -0.15679539	      7.97454173	     -6.84779071	    -16.54954539	     -0.93637249	     -2.03926597	    -10.15066579	    -13.12601264	    -11.65487008	    -15.57386027	     16.07628966	     89.95437384	      0.00000000	      0.00000000	      8.20970109	     15.92377734	      3.25711087	     44.94243348	     89.95437384	      0.00000000	      0.00000000
      0.99000000	     -4.05504918	      0.74202063	      8.97173997	      0.48010375	      0.92377488	      1.50235965	     31.86034414	    -10.01214493	    -20.52242969	    -11.23826423	     -0.19614471	      2.56630744	      8.67172560	      6.68952910	    -12.73929774	     -0.38624663	     12.22320650	     -9.83586158	     -0.17166817	      7.65428135	     -8.18200226	    -17.51618500	     -1.25937913	     -1.61668495	    -10.58976278	    -13.48527335	    -11.55554795	    -17.59513447	     15.36758913	     89.95437384	      0.00000000	      0.00000000	      8.76027157	     16.32361986	      3.44131706	     46.46702300	     89.95437384	      0.00000000	      0.00000000
